<?xml version="1.0" standalone="no"?>
<!DOCTYPE svg PUBLIC "-//W3C//DTD SVG 20010904//EN"
 "http://www.w3.org/TR/2001/REC-SVG-20010904/DTD/svg10.dtd">
<svg version="1.0" xmlns="http://www.w3.org/2000/svg"
 width="247.000000pt" height="204.000000pt" viewBox="0 0 247.000000 204.000000"
 preserveAspectRatio="xMidYMid meet">

<g transform="translate(0.000000,204.000000) scale(0.100000,-0.100000)"
fill="#000000" stroke="none">
<path d="M10 2036 c0 -2 183 -183 408 -402 376 -369 414 -403 488 -442 207
-107 432 -109 644 -4 94 46 95 47 502 446 224 220 408 401 408 403 0 2 -79 3
-176 3 l-176 0 -306 -303 c-270 -267 -315 -308 -373 -335 -127 -60 -262 -60
-389 0 -57 27 -104 69 -372 335 l-306 303 -176 0 c-97 0 -176 -2 -176 -4z"/>
<path d="M1142 930 c-83 -12 -151 -34 -237 -79 -83 -43 -220 -169 -625 -575
l-275 -276 173 0 174 0 304 298 c168 163 328 311 357 329 132 82 311 82 444 0
29 -18 190 -166 357 -330 l304 -297 174 0 173 0 -280 281 c-391 393 -538 528
-622 572 -125 65 -287 95 -421 77z"/>
</g>
</svg>
