<?xml version="1.0" standalone="no"?>
<!DOCTYPE svg PUBLIC "-//W3C//DTD SVG 20010904//EN"
 "http://www.w3.org/TR/2001/REC-SVG-20010904/DTD/svg10.dtd">
<svg version="1.0" xmlns="http://www.w3.org/2000/svg"
 width="225.000000pt" height="225.000000pt" viewBox="0 0 225.000000 225.000000"
 preserveAspectRatio="xMidYMid meet">

<g transform="translate(0.000000,225.000000) scale(0.100000,-0.100000)"
fill="#000000" stroke="none">
<path d="M1027 2069 c-480 -49 -848 -454 -849 -933 0 -61 -4 -127 -9 -146 -10
-41 -53 -85 -121 -124 l-48 -27 0 -94 0 -95 363 185 c199 102 705 359 1124
572 l763 388 0 98 0 98 -122 -65 c-68 -35 -400 -204 -738 -376 -338 -172 -711
-362 -829 -422 l-213 -111 4 134 c4 117 8 145 35 222 71 203 209 360 399 452
202 99 456 102 663 9 l58 -26 88 44 87 44 -49 32 c-169 109 -399 162 -606 141z"/>
<path d="M1130 1030 c-613 -313 -1119 -571 -1123 -572 -4 -2 -6 -46 -5 -98 l3
-95 945 481 945 482 7 -47 c15 -113 -28 -312 -94 -431 -198 -356 -636 -501
-1007 -334 l-58 26 -88 -44 -87 -44 49 -32 c67 -43 167 -87 255 -113 105 -30
324 -38 439 -14 446 90 760 471 761 925 0 58 4 121 9 140 11 45 59 94 121 126
l48 24 0 95 c0 52 -1 95 -2 94 -2 0 -505 -256 -1118 -569z"/>
</g>
</svg>
